<svg xmlns="http://www.w3.org/2000/svg" viewBox="0 0 24 30" x="0px" y="0px"><title>Artboard 49</title><g data-name="Layer 2"><path d="M23.728,4.786A4.744,4.744,0,0,0,19,.25H5A4.744,4.744,0,0,0,.272,4.786a.44.44,0,0,0-.005.051C.265,4.892.25,4.944.25,5v9A4.756,4.756,0,0,0,5,18.75h8.319a5.054,5.054,0,0,0,5.181,4,5.616,5.616,0,0,0,3.708-1.341.75.75,0,0,0-.986-1.13,4.122,4.122,0,0,1-2.722.971c-2.067,0-3.75-1.391-3.75-3.1v-3.3c0-1.709,1.683-3.1,3.75-3.1s3.75,1.391,3.75,3.1v2.4a.779.779,0,0,1-.756.7,1.019,1.019,0,0,1-.769-.236.532.532,0,0,1-.189-.385V14.589a2.17,2.17,0,0,0-1.592-2.059,2.592,2.592,0,0,0-.334-.072,2.771,2.771,0,0,0-2.66,1.147.75.75,0,0,0,1.242.84,1.265,1.265,0,0,1,1.2-.5,1.176,1.176,0,0,1,.139.031.662.662,0,0,1,.5.616v.471a2.489,2.489,0,0,0-.793-.135A2.193,2.193,0,0,0,15.95,17v.935A2.193,2.193,0,0,0,18.243,20a2.369,2.369,0,0,0,1.879-.889,2.544,2.544,0,0,0,1.272.339c.076,0,.152,0,.229-.01a2.275,2.275,0,0,0,2.127-2.193v-2.4c0-.108-.028-.208-.036-.314,0-.019.013-.034.015-.054.01-.157.021-.325.021-.482V5c0-.056-.015-.108-.017-.163A.44.44,0,0,0,23.728,4.786ZM19.036,17.93c0,.309-.363.57-.793.57s-.793-.261-.793-.57V17c0-.309.363-.57.793-.57s.793.261.793.57v.935ZM5,1.75H19a3.247,3.247,0,0,1,3.2,2.723l-8.62,4.791a3.234,3.234,0,0,1-3.153,0L1.8,4.473A3.247,3.247,0,0,1,5,1.75Zm13.5,8.5c-2.895,0-5.25,2.063-5.25,4.6v2.4H5A3.254,3.254,0,0,1,1.75,14V6.16L9.7,10.576a4.732,4.732,0,0,0,4.609,0L22.25,6.16v5.481A5.61,5.61,0,0,0,18.5,10.25Z"/></g><text x="0" y="39" fill="#000000" font-size="5px" font-weight="bold" font-family="'Helvetica Neue', Helvetica, Arial-Unicode, Arial, Sans-serif">Created by Nursila</text><text x="0" y="44" fill="#000000" font-size="5px" font-weight="bold" font-family="'Helvetica Neue', Helvetica, Arial-Unicode, Arial, Sans-serif">from the Noun Project</text></svg>